<svg xmlns="http://www.w3.org/2000/svg" width="310.586" height="316.846" viewBox="0 0 310.586 316.846">
  <g id="banner-dark-1" transform="translate(-2782.036 981.698) rotate(-20)" fill="#fcbd4f">
    <path d="M 3046.99951171875 355.5003967285156 C 3038.55224609375 355.5003967285156 3030.1103515625 354.6493530273438 3021.907958984375 352.970947265625 C 3013.91455078125 351.3352966308594 3006.05224609375 348.8946228027344 2998.5390625 345.7167053222656 C 2991.162353515625 342.5966796875 2984.047119140625 338.7346801757812 2977.39111328125 334.2380065917969 C 2970.79833984375 329.7839965820312 2964.598876953125 324.6690063476562 2958.965087890625 319.0350952148438 C 2953.330810546875 313.4005432128906 2948.216064453125 307.2011108398438 2943.7626953125 300.6090087890625 C 2939.265380859375 293.9517517089844 2935.4033203125 286.8365478515625 2932.283935546875 279.4611206054688 C 2929.106201171875 271.9473571777344 2926.66552734375 264.0848388671875 2925.02978515625 256.0918579101562 C 2923.3515625 247.8891448974609 2922.50048828125 239.4471130371094 2922.50048828125 231.0003051757812 C 2922.50048828125 222.5533752441406 2923.3515625 214.1112670898438 2925.02978515625 205.9084625244141 C 2926.66552734375 197.9154663085938 2929.106201171875 190.0528717041016 2932.283935546875 182.5391540527344 C 2935.40380859375 175.1625823974609 2939.265869140625 168.0473937988281 2943.7626953125 161.3911743164062 C 2948.216552734375 154.7984313964844 2953.33154296875 148.5990600585938 2958.965087890625 142.9652099609375 C 2964.598876953125 137.3314361572266 2970.79833984375 132.2164611816406 2977.39111328125 127.7623977661133 C 2984.047119140625 123.265739440918 2991.162353515625 119.4037704467773 2998.5390625 116.2837753295898 C 3006.05224609375 113.1058654785156 3013.91455078125 110.6652145385742 3021.907958984375 109.0295867919922 C 3030.10986328125 107.3512115478516 3038.552001953125 106.5002136230469 3046.99951171875 106.5002136230469 C 3071.66162109375 106.5002136230469 3095.5 113.6965866088867 3115.937255859375 127.3114013671875 C 3125.792236328125 133.8763732910156 3134.660400390625 141.804931640625 3142.295654296875 150.8767700195312 C 3148.206298828125 157.8992919921875 3153.308349609375 165.5252838134766 3157.521484375 173.6263427734375 C 3138.836669921875 146.8364105224609 3107.92578125 130.5003967285156 3075.00048828125 130.5003967285156 C 3019.583984375 130.5003967285156 2974.49951171875 175.5844573974609 2974.49951171875 231.0003051757812 C 2974.49951171875 286.4161376953125 3019.583984375 331.5002136230469 3075.00048828125 331.5002136230469 C 3107.92578125 331.5002136230469 3138.836669921875 315.164794921875 3157.520751953125 288.37548828125 C 3153.3076171875 296.4764404296875 3148.2060546875 304.1022644042969 3142.29541015625 311.1247863769531 C 3134.66015625 320.1965026855469 3125.7919921875 328.1249084472656 3115.93701171875 334.6897277832031 C 3095.5 348.3041687011719 3071.661865234375 355.5003967285156 3046.99951171875 355.5003967285156 Z" stroke="none"/>
    <path d="M 3046.99951171875 355.0003967285156 C 3071.562744140625 355.0003967285156 3095.30517578125 347.8332214355469 3115.65966796875 334.2736206054688 C 3125.475341796875 327.7350158691406 3134.30810546875 319.8383178710938 3141.912841796875 310.8027954101562 C 3146.22412109375 305.6806335449219 3150.102783203125 300.236572265625 3153.518798828125 294.52001953125 C 3134.49853515625 317.9459228515625 3105.615966796875 332.0002136230469 3075.00048828125 332.0002136230469 C 3019.308349609375 332.0002136230469 2973.99951171875 286.6918334960938 2973.99951171875 231.0003051757812 C 2973.99951171875 175.3087768554688 3019.308349609375 130.0003967285156 3075.00048828125 130.0003967285156 C 3105.615966796875 130.0003967285156 3134.498779296875 144.0553131103516 3153.519287109375 167.4817504882812 C 3150.103271484375 161.7651672363281 3146.224365234375 156.3209075927734 3141.9130859375 151.1987457275391 C 3134.308349609375 142.1631164550781 3125.4755859375 134.2662353515625 3115.659912109375 127.7275238037109 C 3095.30517578125 114.1675872802734 3071.562744140625 107.0002136230469 3046.99951171875 107.0002136230469 C 3038.585693359375 107.0002136230469 3030.17724609375 107.8478088378906 3022.008056640625 109.5194320678711 C 3014.047119140625 111.1484603881836 3006.216552734375 113.5792388916016 2998.73388671875 116.744270324707 C 2991.386962890625 119.8517150878906 2984.30029296875 123.6981506347656 2977.671142578125 128.1767120361328 C 2971.1044921875 132.6129608154297 2964.929931640625 137.7074890136719 2959.318603515625 143.3187408447266 C 2953.70751953125 148.9300842285156 2948.613037109375 155.1047058105469 2944.177001953125 161.6710815429688 C 2939.6982421875 168.3005523681641 2935.851806640625 175.3871154785156 2932.744384765625 182.7339019775391 C 2929.57958984375 190.2172393798828 2927.148681640625 198.0480194091797 2925.519775390625 206.0087127685547 C 2923.84814453125 214.1785888671875 2923.00048828125 222.5869598388672 2923.00048828125 231.0003051757812 C 2923.00048828125 239.4135284423828 2923.84814453125 247.8218383789062 2925.519775390625 255.9916534423828 C 2927.148681640625 263.9522705078125 2929.57958984375 271.7829895019531 2932.74462890625 279.2663269042969 C 2935.851318359375 286.612060546875 2939.69775390625 293.6986083984375 2944.177001953125 300.3291625976562 C 2948.612548828125 306.8948669433594 2953.70703125 313.0694885253906 2959.318603515625 318.6815490722656 C 2964.929931640625 324.2929382324219 2971.104736328125 329.3874816894531 2977.671142578125 333.8236694335938 C 2984.30029296875 338.3022766113281 2991.386962890625 342.1487426757812 2998.73388671875 345.2562255859375 C 3006.216552734375 348.4212646484375 3014.047119140625 350.8520812988281 3022.008056640625 352.4811096191406 C 3030.177490234375 354.1527709960938 3038.5859375 355.0003967285156 3046.99951171875 355.0003967285156 M 3046.99951171875 356.0003967285156 C 3038.5185546875 356.0003967285156 3030.04296875 355.1459655761719 3021.8076171875 353.4608154296875 C 3013.7822265625 351.8185729980469 3005.887939453125 349.3680419921875 2998.34423828125 346.1772155761719 C 2990.937744140625 343.0445556640625 2983.7939453125 339.1669921875 2977.111328125 334.6523132324219 C 2970.492431640625 330.1806945800781 2964.26806640625 325.0451965332031 2958.611572265625 319.3886413574219 C 2952.95556640625 313.7322998046875 2947.820068359375 307.5081176757812 2943.348388671875 300.888916015625 C 2938.833251953125 294.2054748535156 2934.95556640625 287.0616149902344 2931.823486328125 279.6558532714844 C 2928.633056640625 272.1124572753906 2926.182373046875 264.2181091308594 2924.5400390625 256.1921081542969 C 2922.85498046875 247.9568023681641 2922.00048828125 239.4810485839844 2922.00048828125 231.0003051757812 C 2922.00048828125 222.5194549560547 2922.85498046875 214.0436248779297 2924.5400390625 205.8082427978516 C 2926.182373046875 197.7822113037109 2928.633056640625 189.8878021240234 2931.823486328125 182.3443603515625 C 2934.955810546875 174.9384918212891 2938.833251953125 167.7946472167969 2943.348388671875 161.1112670898438 C 2947.820068359375 154.4922180175781 2952.955322265625 148.2680511474609 2958.611572265625 142.6116485595703 C 2964.26806640625 136.9551239013672 2970.492431640625 131.8197174072266 2977.111328125 127.3480834960938 C 2983.7939453125 122.8334274291992 2990.937744140625 118.9559020996094 2998.34423828125 115.8232727050781 C 3005.887939453125 112.6324920654297 3013.7822265625 110.1819610595703 3021.8076171875 108.5397415161133 C 3030.042724609375 106.8546142578125 3038.5185546875 106.0002136230469 3046.99951171875 106.0002136230469 C 3071.760498046875 106.0002136230469 3095.69482421875 113.2256164550781 3116.21435546875 126.8952713012695 C 3126.109130859375 133.4867706298828 3135.0126953125 141.4469909667969 3142.67822265625 150.5548095703125 C 3150.391845703125 159.7194366455078 3156.7333984375 169.9075927734375 3161.52685546875 180.8362426757812 C 3143.665283203125 150.0967102050781 3110.510986328125 131.0003967285156 3075.00048828125 131.0003967285156 C 3019.85986328125 131.0003967285156 2974.99951171875 175.8601837158203 2974.99951171875 231.0003051757812 C 2974.99951171875 286.1404418945312 3019.85986328125 331.0002136230469 3075.00048828125 331.0002136230469 C 3110.51025390625 331.0002136230469 3143.6650390625 311.9047241210938 3161.5263671875 281.16552734375 C 3156.73193359375 292.09619140625 3150.389892578125 302.2839660644531 3142.677978515625 311.4467468261719 C 3135.012451171875 320.5544738769531 3126.10888671875 328.5145263671875 3116.214111328125 335.1058654785156 C 3095.69482421875 348.7751770019531 3071.7607421875 356.0003967285156 3046.99951171875 356.0003967285156 Z" stroke="none" fill="#707070"/>
  </g>
</svg>
