<svg xmlns="http://www.w3.org/2000/svg" width="351" height="211" viewBox="0 0 351 211">
  <g id="banner-light-1" fill="#fff">
    <path d="M 215.0873565673828 208.4999237060547 C 202.0503234863281 208.4999237060547 189.6746826171875 203.7451019287109 180.2401733398438 195.1113739013672 L 179.1438140869141 194.1080627441406 L 177.7385864257812 194.5918731689453 C 166.6888580322266 198.3960571289062 153.8564605712891 200.4068298339844 140.6286315917969 200.4068298339844 C 126.3277282714844 200.4068298339844 112.6330413818359 198.0847015380859 101.0250473022461 193.6914215087891 C 95.48876953125 191.5960998535156 90.58745574951172 189.0852813720703 86.45713806152344 186.2286529541016 C 82.36404418945312 183.3977813720703 79.12049865722656 180.2908782958984 76.81663513183594 176.9943389892578 L 75.73927307128906 175.4527435302734 L 73.95944976806641 176.0606079101562 C 68.21385955810547 178.0228729248047 62.1790885925293 179.0178375244141 56.0228157043457 179.0178375244141 C 48.78440856933594 179.0178375244141 41.76463317871094 177.6546020507812 35.15854263305664 174.9660186767578 C 28.78258895874023 172.3711090087891 23.05745315551758 168.6572418212891 18.14204406738281 163.9275665283203 C 13.23345279693604 159.2044219970703 9.380816459655762 153.7071075439453 6.69118070602417 147.5883331298828 C 3.91013503074646 141.2615661621094 2.499998807907104 134.5404663085938 2.499998807907104 127.6117401123047 C 2.499998807907104 120.6829223632812 3.91013503074646 113.961784362793 6.69118070602417 107.6349716186523 C 9.380816459655762 101.5161972045898 13.23345279693604 96.01882934570312 18.14204406738281 91.295654296875 C 23.05740737915039 86.56597137451172 28.78258895874023 82.85210418701172 35.15854263305664 80.25719451904297 C 41.76463317871094 77.568603515625 48.78440856933594 76.20537567138672 56.0228157043457 76.20537567138672 C 60.52077102661133 76.20537567138672 64.98967742919922 76.74201202392578 69.30540466308594 77.80037689208984 C 73.49240875244141 78.82719421386719 77.54817962646484 80.34738159179688 81.36004638671875 82.31878662109375 L 84.42513275146484 83.90396881103516 L 84.97640991210938 80.49755859375 C 86.04495239257812 73.89456176757812 88.26031494140625 67.59406280517578 91.56081390380859 61.77115249633789 C 94.78800201416016 56.07769775390625 98.94540405273438 51.02274322509766 103.9176788330078 46.74669647216797 C 108.9219512939453 42.44314956665039 114.5730895996094 39.08346939086914 120.7141342163086 36.76097106933594 C 127.0699996948242 34.35724258422852 133.7701873779297 33.13842391967773 140.6286315917969 33.13842391967773 C 147.5129089355469 33.13842391967773 154.2366333007812 34.36610412597656 160.6129913330078 36.78742218017578 L 162.4833221435547 37.49760437011719 L 163.5862731933594 35.82846832275391 C 170.1388244628906 25.91210556030273 179.6395416259766 17.58074188232422 191.0613555908203 11.73519706726074 C 196.8578643798828 8.768606185913086 203.0839538574219 6.475832939147949 209.5666809082031 4.920605659484863 C 216.2617645263672 3.31442403793335 223.2160949707031 2.500015020370483 230.2364044189453 2.500015020370483 C 240.6129150390625 2.500015020370483 250.6751403808594 4.248924255371094 260.1435546875 7.698196887969971 C 264.6876831054688 9.353606224060059 269.0693054199219 11.40183353424072 273.1666259765625 13.78596973419189 C 277.21923828125 16.1440601348877 281.0286254882812 18.85087776184082 284.489013671875 21.83124160766602 C 287.942626953125 24.80583381652832 291.0766906738281 28.07706069946289 293.803955078125 31.55401420593262 C 296.5511474609375 35.0562858581543 298.9095458984375 38.7981071472168 300.813720703125 42.67560577392578 C 304.7649841308594 50.72160720825195 306.7684631347656 59.26528930664062 306.7684631347656 68.06924438476562 C 306.7684631347656 70.74637603759766 306.5782775878906 73.44087982177734 306.203125 76.077880859375 L 305.9028930664062 78.18846893310547 L 307.9395446777344 78.81833648681641 C 313.751953125 80.61601257324219 319.2229919433594 83.30265045166016 324.2006225585938 86.80360412597656 C 329.1134948730469 90.25901794433594 333.4346313476562 94.42792510986328 337.0440368652344 99.19451141357422 C 340.6925048828125 104.0126953125 343.5278625488281 109.3302001953125 345.4713134765625 114.999382019043 C 347.4807739257812 120.860969543457 348.4996337890625 127.000602722168 348.4996337890625 133.2478790283203 C 348.4996337890625 140.9449310302734 346.9695129394531 148.4107818603516 343.9517822265625 155.4380187988281 C 342.5009155273438 158.8166046142578 340.7048645019531 162.0756530761719 338.6135864257812 165.1245574951172 C 336.5411682128906 168.1458282470703 334.1610107421875 170.9871978759766 331.5390319824219 173.5696563720703 C 328.9164123535156 176.1527404785156 326.0304870605469 178.4979705810547 322.9614868164062 180.5401000976562 C 319.8629455566406 182.6019287109375 316.550537109375 184.3727416992188 313.1161804199219 185.803466796875 C 305.9694519042969 188.7807922363281 298.3759155273438 190.2903747558594 290.5465087890625 190.2903747558594 C 285.5248107910156 190.2903747558594 280.5406799316406 189.6578369140625 275.7324523925781 188.4102478027344 C 271.0689392089844 187.2002410888672 266.5644226074219 185.4110565185547 262.3439636230469 183.0924224853516 L 260.2262573242188 181.9289703369141 L 258.9913635253906 184.0057830810547 C 254.6493682861328 191.3079681396484 248.3736877441406 197.4374694824219 240.8427276611328 201.731689453125 C 237.0280456542969 203.9068756103516 232.9325866699219 205.5876007080078 228.6701354980469 206.7272033691406 C 224.2704467773438 207.9035186767578 219.7005462646484 208.4999237060547 215.0873565673828 208.4999237060547 Z" stroke="none"/>
    <path d="M 215.0873718261719 205.9999694824219 C 219.4826202392578 205.9999694824219 223.8352661132812 205.4320678710938 228.0244598388672 204.3120727539062 C 232.0798187255859 203.2278747558594 235.9758605957031 201.6290130615234 239.6043701171875 199.5600128173828 C 246.7603149414062 195.4795684814453 252.7211608886719 189.6592254638672 256.8425598144531 182.7280731201172 L 259.3124084472656 178.574462890625 L 263.5477600097656 180.9013214111328 C 267.5865783691406 183.1201629638672 271.8973693847656 184.8323669433594 276.3603210449219 185.9903717041016 C 280.963623046875 187.1847686767578 285.736572265625 187.7903747558594 290.5465087890625 187.7903747558594 C 298.0442199707031 187.7903747558594 305.3142700195312 186.3454132080078 312.1548156738281 183.4957122802734 C 315.4413757324219 182.1265716552734 318.611328125 180.4319152832031 321.5765686035156 178.4587707519531 C 324.5135192871094 176.5045166015625 327.2751159667969 174.2603149414062 329.7847290039062 171.7885131835938 C 332.2930297851562 169.3180236816406 334.56982421875 166.6001739501953 336.5519104003906 163.7104644775391 C 338.5511779785156 160.7957763671875 340.2679748535156 157.6806182861328 341.6546020507812 154.4515686035156 C 344.5377807617188 147.7377624511719 345.9996032714844 140.6038208007812 345.9996032714844 133.2478637695312 C 345.9996032714844 127.2770690917969 345.0262145996094 121.4101715087891 343.1064147949219 115.8101196289062 C 341.2491760253906 110.3924713134766 338.5389099121094 105.3099212646484 335.0509643554688 100.7037200927734 C 331.5979309082031 96.14356994628906 327.4634704589844 92.15492248535156 322.7624206542969 88.84847259521484 C 317.9988708496094 85.49812316894531 312.7632141113281 82.92701721191406 307.2008666992188 81.20671844482422 L 303.1276245117188 79.94696807861328 L 303.7280578613281 75.72586822509766 C 304.086669921875 73.20481872558594 304.2684631347656 70.62876892089844 304.2684631347656 68.06926727294922 C 304.2684631347656 59.65066909790039 302.3511047363281 51.47776794433594 298.5697021484375 43.77761840820312 C 296.7421264648438 40.05606842041016 294.4768676757812 36.46257019042969 291.8369140625 33.09696960449219 C 289.2095642089844 29.7474193572998 286.1884765625 26.59441947937012 282.8575134277344 23.72551918029785 C 279.5131225585938 20.84502029418945 275.8296203613281 18.22791862487793 271.9093017578125 15.94676971435547 C 267.9396667480469 13.63696956634521 263.6931762695312 11.65206909179688 259.2878112792969 10.04721927642822 C 250.0944671630859 6.698119640350342 240.3201599121094 5.000019550323486 230.2364196777344 5.000019550323486 C 223.4122619628906 5.000019550323486 216.6542205810547 5.791219711303711 210.1499176025391 7.351619720458984 C 203.8596649169922 8.860669136047363 197.8206176757812 11.08426952362061 192.2003631591797 13.96066951751709 C 181.1610717773438 19.61046981811523 171.9877166748047 27.64881896972656 165.6720733642578 37.20671844482422 L 163.4661712646484 40.54496765136719 L 159.7255096435547 39.12456893920898 C 153.6337127685547 36.81132125854492 147.2086181640625 35.63842010498047 140.628662109375 35.63842010498047 C 134.0734100341797 35.63842010498047 127.670768737793 36.80281829833984 121.598518371582 39.09931945800781 C 115.7307205200195 41.3184700012207 110.3304672241211 44.52911758422852 105.5477676391602 48.64216995239258 C 100.794563293457 52.72982025146484 96.82041931152344 57.56182098388672 93.73576354980469 63.0039176940918 C 90.58206939697266 68.56781768798828 88.46531677246094 74.58792114257812 87.44432067871094 80.89697265625 L 86.34176635742188 87.70981597900391 L 80.21161651611328 84.53942108154297 C 76.57501983642578 82.65866851806641 72.70531463623047 81.20822143554688 68.70996856689453 80.22841644287109 C 64.58896636962891 79.21781921386719 60.32036590576172 78.70536804199219 56.0228157043457 78.70536804199219 C 49.10906600952148 78.70536804199219 42.40636825561523 80.00652313232422 36.10096740722656 82.57276916503906 C 30.02021598815918 85.04751586914062 24.56121635437012 88.58841705322266 19.87551689147949 93.09712219238281 C 15.20326709747314 97.59281921386719 11.53746700286865 102.8225708007812 8.979866981506348 108.6410217285156 C 6.339016914367676 114.6487731933594 5.000016689300537 121.0314178466797 5.000016689300537 127.6117172241211 C 5.000016689300537 134.1919708251953 6.339016914367676 140.5745697021484 8.979866981506348 146.5823211669922 C 11.53746700286865 152.4007263183594 15.20326709747314 157.6304168701172 19.87551689147949 162.1261138916016 C 24.56121635437012 166.634765625 30.02021598815918 170.1756744384766 36.10096740722656 172.6504669189453 C 42.40636825561523 175.2166748046875 49.10906600952148 176.517822265625 56.0228157043457 176.517822265625 C 61.90366744995117 176.517822265625 67.66656494140625 175.5680236816406 73.15146636962891 173.6947631835938 L 76.71106719970703 172.4790649414062 L 78.86581420898438 175.5622253417969 C 80.99881744384766 178.6143188476562 84.03136444091797 181.5112762451172 87.87921905517578 184.1725158691406 C 91.84272003173828 186.9137725830078 96.56336975097656 189.3297119140625 101.9099655151367 191.353271484375 C 113.2382202148438 195.640625 126.6269149780273 197.9068145751953 140.628662109375 197.9068145751953 C 153.5828704833984 197.9068145751953 166.1338653564453 195.943115234375 176.9247741699219 192.2280120849609 L 179.7352142333984 191.2604217529297 L 181.9279632568359 193.2670745849609 C 190.9004211425781 201.4780120849609 202.6766662597656 205.9999694824219 215.0873718261719 205.9999694824219 M 215.0873718261719 210.9999694824219 C 200.9266662597656 210.9999694824219 188.0624694824219 205.6585693359375 178.5524139404297 196.9556732177734 C 167.6099243164062 200.7229766845703 154.5962219238281 202.9068145751953 140.628662109375 202.9068145751953 C 110.4795684814453 202.9068145751953 84.76211547851562 192.7275695800781 74.76746368408203 178.4264221191406 C 68.90702056884766 180.4279174804688 62.59651565551758 181.517822265625 56.0228157043457 181.517822265625 C 25.08216667175293 181.517822265625 1.689453165454324e-05 157.3831176757812 1.689453165454324e-05 127.6117172241211 C 1.689453165454324e-05 97.84011840820312 25.08216667175293 73.70536804199219 56.0228157043457 73.70536804199219 C 65.60296630859375 73.70536804199219 74.62226867675781 76.01962280273438 82.50851440429688 80.09822082519531 C 87.04716491699219 52.05257034301758 111.3407669067383 30.63842010498047 140.628662109375 30.63842010498047 C 147.9783630371094 30.63842010498047 155.0131225585938 31.98676872253418 161.5005187988281 34.45021820068359 C 175.0957183837891 13.87576961517334 200.7850646972656 1.948242243088316e-05 230.2364196777344 1.948242243088316e-05 C 273.8845520019531 1.948242243088316e-05 309.2684631347656 30.4755687713623 309.2684631347656 68.06926727294922 C 309.2684631347656 70.90071868896484 309.0680541992188 73.68921661376953 308.67822265625 76.42996978759766 C 333.2067260742188 84.01606750488281 350.9996032714844 106.5854721069336 350.9996032714844 133.2478637695312 C 350.9996032714844 166.13232421875 323.9338684082031 192.7903747558594 290.5465087890625 192.7903747558594 C 279.87255859375 192.7903747558594 269.8441162109375 190.0653228759766 261.1402282714844 185.2835235595703 C 252.0040740966797 200.6481628417969 234.8029632568359 210.9999694824219 215.0873718261719 210.9999694824219 Z" stroke="none" fill="#000"/>
  </g>
</svg>
