<svg xmlns="http://www.w3.org/2000/svg" width="456.969" height="168.169" viewBox="0 0 456.969 168.169">
  <g id="banner-dark-2" transform="translate(-712 -45.5)">
    <g id="Union_3" data-name="Union 3" transform="matrix(0.985, 0.174, -0.174, 0.985, 1038.482, 74.5)" fill="#fcbd4f">
      <path d="M 107.4212036132812 116.9337921142578 L 66.79850006103516 98.34575653076172 L 66.48377990722656 98.20175170898438 L 66.336669921875 98.34781646728516 L 66.20719909667969 98.21926879882812 L 65.89315032958984 98.36165618896484 L 25.17706489562988 116.8219757080078 L 43.70461654663086 76.53840637207031 L 43.92478179931641 76.05970764160156 L 43.43523406982422 75.86490631103516 L 1.35232150554657 59.11880493164062 L 43.65858459472656 42.28382110595703 L 43.97371673583984 42.15842056274414 L 43.97371673583984 42.11561965942383 L 44.37418365478516 42.11561965942383 L 44.67678451538086 42.11561965942383 L 44.81713485717773 41.84753799438477 L 66.163330078125 1.077921867370605 L 87.50955200195312 41.84753799438477 L 87.64990234375 42.11561965942383 L 87.95249938964844 42.11561965942383 L 88.41874694824219 42.11561965942383 L 88.66808319091797 42.21483993530273 L 131.1476745605469 59.11880493164062 L 89.01979827880859 75.88280487060547 L 88.92483520507812 75.92058563232422 L 88.85231781005859 75.99262237548828 L 88.80291748046875 76.04168701171875 L 88.55408477783203 76.28884124755859 L 88.70175170898438 76.60695648193359 L 107.4212036132812 116.9337921142578 Z" stroke="none"/>
      <path d="M 106.3972244262695 115.915397644043 L 87.95291137695312 76.18128967285156 L 88.64496612548828 75.49381256103516 L 129.7953338623047 59.11879730224609 L 88.32294464111328 42.61563110351562 L 87.3472900390625 42.61563110351562 L 66.163330078125 2.155869483947754 L 44.9793815612793 42.61563110351562 L 44.17707061767578 42.61563110351562 L 2.704667329788208 59.11879730224609 L 44.59920120239258 75.78993988037109 L 26.19143867492676 115.8130798339844 L 66.31476593017578 97.62152099609375 L 66.33665466308594 97.64325714111328 L 66.37710571289062 97.60308837890625 L 106.3972244262695 115.915397644043 M 108.445182800293 117.9522171020508 L 66.5904541015625 98.80043029785156 L 66.336669921875 99.05239868164062 L 66.09961700439453 98.81704711914062 L 24.1627082824707 117.8308715820312 L 43.25036239624023 76.3294677734375 L 0 59.11879730224609 L 43.47372817993164 41.81925201416016 L 43.47372817993164 41.61563110351562 L 44.37418365478516 41.61563110351562 L 66.163330078125 -4.354581051302375e-06 L 87.95249176025391 41.61563110351562 L 88.85294342041016 41.61563110351562 L 88.85294342041016 41.75026702880859 L 132.5 59.11879730224609 L 89.20467376708984 76.34735870361328 L 89.1552734375 76.39643096923828 L 108.445182800293 117.9522171020508 Z" stroke="none" fill="#707070"/>
    </g>
    <g id="Union_4" data-name="Union 4" transform="matrix(0.985, -0.174, 0.174, 0.985, 712, 97.508)" fill="#fcbd4f">
      <path d="M 107.4212036132812 116.9337921142578 L 66.79850006103516 98.34575653076172 L 66.48377990722656 98.20175170898438 L 66.336669921875 98.34781646728516 L 66.20719909667969 98.21926879882812 L 65.89315032958984 98.36165618896484 L 25.17706489562988 116.8219757080078 L 43.70461654663086 76.53840637207031 L 43.92478179931641 76.05970764160156 L 43.43523406982422 75.86490631103516 L 1.35232150554657 59.11880493164062 L 43.65858459472656 42.28382110595703 L 43.97371673583984 42.15842056274414 L 43.97371673583984 42.11561965942383 L 44.37418365478516 42.11561965942383 L 44.67678451538086 42.11561965942383 L 44.81713485717773 41.84753799438477 L 66.163330078125 1.077921867370605 L 87.50955200195312 41.84753799438477 L 87.64990234375 42.11561965942383 L 87.95249938964844 42.11561965942383 L 88.41874694824219 42.11561965942383 L 88.66808319091797 42.21483993530273 L 131.1476745605469 59.11880493164062 L 89.01979827880859 75.88280487060547 L 88.92483520507812 75.92058563232422 L 88.85231781005859 75.99262237548828 L 88.80291748046875 76.04168701171875 L 88.55408477783203 76.28884124755859 L 88.70175170898438 76.60695648193359 L 107.4212036132812 116.9337921142578 Z" stroke="none"/>
      <path d="M 106.3972244262695 115.915397644043 L 87.95291137695312 76.18128967285156 L 88.64496612548828 75.49381256103516 L 129.7953338623047 59.11879730224609 L 88.32294464111328 42.61563110351562 L 87.3472900390625 42.61563110351562 L 66.163330078125 2.155869483947754 L 44.9793815612793 42.61563110351562 L 44.17707061767578 42.61563110351562 L 2.704667329788208 59.11879730224609 L 44.59920120239258 75.78993988037109 L 26.19143867492676 115.8130798339844 L 66.31476593017578 97.62152099609375 L 66.33665466308594 97.64325714111328 L 66.37710571289062 97.60308837890625 L 106.3972244262695 115.915397644043 M 108.445182800293 117.9522171020508 L 66.5904541015625 98.80043029785156 L 66.336669921875 99.05239868164062 L 66.09961700439453 98.81704711914062 L 24.1627082824707 117.8308715820312 L 43.25036239624023 76.3294677734375 L 0 59.11879730224609 L 43.47372817993164 41.81925201416016 L 43.47372817993164 41.61563110351562 L 44.37418365478516 41.61563110351562 L 66.163330078125 -4.354581051302375e-06 L 87.95249176025391 41.61563110351562 L 88.85294342041016 41.61563110351562 L 88.85294342041016 41.75026702880859 L 132.5 59.11879730224609 L 89.20467376708984 76.34735870361328 L 89.1552734375 76.39643096923828 L 108.445182800293 117.9522171020508 Z" stroke="none" fill="#707070"/>
    </g>
    <g id="Union_5" data-name="Union 5" transform="translate(877.25 45.5)" fill="#fcbd4f">
      <path d="M 107.4212036132812 116.9337921142578 L 66.79850006103516 98.34575653076172 L 66.48377990722656 98.20175170898438 L 66.336669921875 98.34781646728516 L 66.20719909667969 98.21926879882812 L 65.89315032958984 98.36165618896484 L 25.17706489562988 116.8219757080078 L 43.70461654663086 76.53840637207031 L 43.92478179931641 76.05970764160156 L 43.43523406982422 75.86490631103516 L 1.35232150554657 59.11880493164062 L 43.65858459472656 42.28382110595703 L 43.97371673583984 42.15842056274414 L 43.97371673583984 42.11561965942383 L 44.37418365478516 42.11561965942383 L 44.67678451538086 42.11561965942383 L 44.81713485717773 41.84753799438477 L 66.163330078125 1.077921867370605 L 87.50955200195312 41.84753799438477 L 87.64990234375 42.11561965942383 L 87.95249938964844 42.11561965942383 L 88.41874694824219 42.11561965942383 L 88.66808319091797 42.21483993530273 L 131.1476745605469 59.11880493164062 L 89.01979827880859 75.88280487060547 L 88.92483520507812 75.92058563232422 L 88.85231781005859 75.99262237548828 L 88.80291748046875 76.04168701171875 L 88.55408477783203 76.28884124755859 L 88.70175170898438 76.60695648193359 L 107.4212036132812 116.9337921142578 Z" stroke="none"/>
      <path d="M 106.3972244262695 115.915397644043 L 87.95291137695312 76.18128967285156 L 88.64496612548828 75.49381256103516 L 129.7953338623047 59.11879730224609 L 88.32294464111328 42.61563110351562 L 87.3472900390625 42.61563110351562 L 66.163330078125 2.155869483947754 L 44.9793815612793 42.61563110351562 L 44.17707061767578 42.61563110351562 L 2.704667329788208 59.11879730224609 L 44.59920120239258 75.78993988037109 L 26.19143867492676 115.8130798339844 L 66.31476593017578 97.62152099609375 L 66.33665466308594 97.64325714111328 L 66.37710571289062 97.60308837890625 L 106.3972244262695 115.915397644043 M 108.445182800293 117.9522171020508 L 66.5904541015625 98.80043029785156 L 66.336669921875 99.05239868164062 L 66.09961700439453 98.81704711914062 L 24.1627082824707 117.8308715820312 L 43.25036239624023 76.3294677734375 L 0 59.11879730224609 L 43.47372817993164 41.81925201416016 L 43.47372817993164 41.61563110351562 L 44.37418365478516 41.61563110351562 L 66.163330078125 -4.354581051302375e-06 L 87.95249176025391 41.61563110351562 L 88.85294342041016 41.61563110351562 L 88.85294342041016 41.75026702880859 L 132.5 59.11879730224609 L 89.20467376708984 76.34735870361328 L 89.1552734375 76.39643096923828 L 108.445182800293 117.9522171020508 Z" stroke="none" fill="#707070"/>
    </g>
  </g>
</svg>
